{
  "accessors": [
    {
      "bufferView": 2,
      "componentType": 5126,
      "count": 43632,
      "max": [
        15.504706382751465,
        12.267330169677734,
        10.546479225158691
      ],
      "min": [
        -15.504706382751465,
        -12.267330169677734,
        -10.546479225158691
      ],
      "type": "VEC3"
    },
    {
      "bufferView": 2,
      "byteOffset": 523584,
      "componentType": 5126,
      "count": 43632,
      "max": [
        0.99991476535797119,
        0.99996823072433472,
        0.99998456239700317
      ],
      "min": [
        -0.99979841709136963,
        -0.99663442373275757,
        -0.99126714468002319
      ],
      "type": "VEC3"
    },
    {
      "bufferView": 3,
      "componentType": 5126,
      "count": 43632,
      "max": [
        0.9999701976776123,
        0.99991947412490845,
        0.9999890923500061,
        1
      ],
      "min": [
        -0.999988853931427,
        -0.99993497133255005,
        -0.99994778633117676,
        -1
      ],
      "type": "VEC4"
    },
    {
      "bufferView": 1,
      "componentType": 5126,
      "count": 43632,
      "max": [
        0.99463200569152832,
        1.0003839731216431
      ],
      "min": [
        0.00061899999855086207,
        0.0024920001160353422
      ],
      "type": "VEC2"
    },
    {
      "bufferView": 0,
      "componentType": 5125,
      "count": 182649,
      "max": [
        43631
      ],
      "min": [
        0
      ],
      "type": "SCALAR"
    }
  ],
  "asset": {
    "extras": {
      "author": "Mark Burginger architect (https://sketchfab.com/toy_meister)",
      "license": "CC-BY-NC-4.0 (http://creativecommons.org/licenses/by-nc/4.0/)",
      "source": "https://sketchfab.com/models/39931502a7b24bc2bb35146b91b689b5",
      "title": "Pacific Power's Hydro Dam in Bend, Oregon"
    },
    "generator": "Sketchfab-3.18.7",
    "version": "2.0"
  },
  "bufferViews": [
    {
      "buffer": 0,
      "byteLength": 730596,
      "byteOffset": 0,
      "name": "floatBufferViews",
      "target": 34963
    },
    {
      "buffer": 0,
      "byteLength": 349056,
      "byteOffset": 730596,
      "byteStride": 8,
      "name": "floatBufferViews",
      "target": 34962
    },
    {
      "buffer": 0,
      "byteLength": 1047168,
      "byteOffset": 1079652,
      "byteStride": 12,
      "name": "floatBufferViews",
      "target": 34962
    },
    {
      "buffer": 0,
      "byteLength": 698112,
      "byteOffset": 2126820,
      "byteStride": 16,
      "name": "floatBufferViews",
      "target": 34962
    }
  ],
  "buffers": [
    {
      "byteLength": 2824932,
      "uri": "scene.bin"
    }
  ],
  "images": [
    {
      "uri": "textures/model_baseColor.jpeg"
    }
  ],
  "materials": [
    {
      "doubleSided": true,
      "emissiveFactor": [
        0,
        0,
        0
      ],
      "name": "model",
      "pbrMetallicRoughness": {
        "baseColorFactor": [
          1,
          1,
          1,
          1
        ],
        "baseColorTexture": {
          "index": 0,
          "texCoord": 0
        },
        "metallicFactor": 0,
        "roughnessFactor": 1
      }
    }
  ],
  "meshes": [
    {
      "primitives": [
        {
          "attributes": {
            "NORMAL": 1,
            "POSITION": 0,
            "TANGENT": 2,
            "TEXCOORD_0": 3
          },
          "indices": 4,
          "material": 0,
          "mode": 4
        }
      ]
    }
  ],
  "nodes": [
    {
      "children": [
        1
      ],
      "name": "RootNode (gltf orientation matrix)",
      "rotation": [
        -0.70710678118654746,
        -0,
        -0,
        0.70710678118654757
      ]
    },
    {
      "children": [
        2
      ],
      "matrix": [
        1,
        0,
        0,
        0,
        0,
        0.80161213874816895,
        0.59784442186355591,
        0,
        0,
        -0.59784442186355591,
        0.80161213874816895,
        0,
        0,
        -3.9195001590996981e-06,
        -1.8706299670157023e-05,
        1
      ],
      "name": "RootNode (model correction matrix)"
    },
    {
      "children": [
        3
      ],
      "name": "model.obj.cleaner.materialmerger.gles"
    },
    {
      "mesh": 0,
      "name": ""
    }
  ],
  "samplers": [
    {
      "magFilter": 9729,
      "minFilter": 9987,
      "wrapS": 10497,
      "wrapT": 10497
    }
  ],
  "scene": 0,
  "scenes": [
    {
      "name": "OSG_Scene",
      "nodes": [
        0
      ]
    }
  ],
  "textures": [
    {
      "sampler": 0,
      "source": 0
    }
  ]
}

